<?xml version="1.0" encoding="UTF-8"?>
<svg version="1.1" xmlns="http://www.w3.org/2000/svg" width="48" height="48">
<path d="M0 0 C2.75 -0.25 2.75 -0.25 6 0 C8.375 2 8.375 2 10 4 C10.515625 3.34 11.03125 2.68 11.5625 2 C14.79995755 -0.65637543 16.92552281 -0.31342132 21 0 C21.33 0.99 21.66 1.98 22 3 C22.66 3 23.32 3 24 3 C24 3.66 24 4.32 24 5 C24.66 5 25.32 5 26 5 C26 7.64 26 10.28 26 13 C25.34 13 24.68 13 24 13 C24 13.66 24 14.32 24 15 C23.34 15 22.68 15 22 15 C21.67 15.99 21.34 16.98 21 18 C14.6 18.49230769 14.6 18.49230769 11.5625 16 C11.046875 15.34 10.53125 14.68 10 14 C9.46375 14.66 8.9275 15.32 8.375 16 C6 18 6 18 2.9375 18.4375 C0 18 0 18 -1.875 16.625 C-3 15 -3 15 -3 13 C-3.99 12.67 -4.98 12.34 -6 12 C-6 10.02 -6 8.04 -6 6 C-5.01 5.67 -4.02 5.34 -3 5 C-3 4.34 -3 3.68 -3 3 C-2.34 3 -1.68 3 -1 3 C-0.67 2.01 -0.34 1.02 0 0 Z M1 4 C-1.31140296 6.76148156 -1.31140296 6.76148156 -0.6875 9.5625 C-0.08760162 11.98114611 -0.08760162 11.98114611 1 14 C3.10031679 14.21531408 3.10031679 14.21531408 4.625 12.625 C6.21531408 11.10031679 6.21531408 11.10031679 6 9 C6.66 9 7.32 9 8 9 C8 8.34 8 7.68 8 7 C7.34 7 6.68 7 6 7 C5.67 6.01 5.34 5.02 5 4 C3.68 4 2.36 4 1 4 Z M18 4 C17.67 4.99 17.34 5.98 17 7 C16.34 7 15.68 7 15 7 C15 7.66 15 8.32 15 9 C14.34 9 13.68 9 13 9 C13.97382182 11.51570636 14.46151135 12.73944098 16.9375 13.9375 C19.06318167 14.19213327 19.06318167 14.19213327 20.8125 12.875 C22.2468061 11.0082252 22.2468061 11.0082252 21.875 8.4375 C21.15610832 5.6738389 21.15610832 5.6738389 18 4 Z " fill="#000000" transform="translate(21,17)"/>
<path d="M0 0 C1.65 0 3.3 0 5 0 C3.74241557 4.06497208 2.23747765 7.67690212 0.1796875 11.3984375 C-0.35527344 12.37167969 -0.89023438 13.34492188 -1.44140625 14.34765625 C-1.99699219 15.34667969 -2.55257813 16.34570312 -3.125 17.375 C-3.68832031 18.39722656 -4.25164063 19.41945313 -4.83203125 20.47265625 C-6.2169331 22.98425792 -7.60636455 25.49323719 -9 28 C-10.65 28 -12.3 28 -14 28 C-12.60786668 24.35792507 -10.99205189 20.93167328 -9.1796875 17.48046875 C-8.64472656 16.45888672 -8.10976562 15.43730469 -7.55859375 14.38476562 C-7.00300781 13.32966797 -6.44742187 12.27457031 -5.875 11.1875 C-5.31167969 10.11306641 -4.74835937 9.03863281 -4.16796875 7.93164062 C-2.78080182 5.28661895 -1.3914106 2.64279105 0 0 Z " fill="#000000" transform="translate(14,10)"/>
</svg>
